HIERARCHY
ROOT Hips
{
  OFFSET 0.0 0.0 0.0
  CHANNELS 6 XPOSITION YPOSITION ZPOSITION ZROTATION XROTATION YROTATION 
  JOINT RightUpLeg
  {
    OFFSET -0.089458 -0.0866707 0.00101652
    CHANNELS 3 ZROTATION XROTATION YROTATION 
    JOINT RightLeg
    {
      OFFSET 0.0 -0.444227 0.013727
      CHANNELS 3 ZROTATION XROTATION YROTATION 
      JOINT RightFoot
      {
        OFFSET 0.00253549 -0.420924 -0.0146059
        CHANNELS 3 ZROTATION XROTATION YROTATION 
        End Site
        {
          OFFSET 0.0004 -0.0441509 0.084991
        }
      }
    }
  }
  JOINT Spine
  {
    OFFSET 0.0 0.118905 0.0
    CHANNELS 3 ZROTATION XROTATION YROTATION 
    JOINT Spine1
    {
      OFFSET 0.0 0.256574 0.00127663
      CHANNELS 3 ZROTATION XROTATION YROTATION 
      End Site
      {
        OFFSET -0.0029 0.2150836 0.02525291
      }
      JOINT RightArm
      {
        OFFSET -0.162727 -0.05365632 0.00102123
        CHANNELS 3 ZROTATION XROTATION YROTATION 
        JOINT RightForeArm
        {
          OFFSET -0.26364 0.00099144 -0.0142434
          CHANNELS 3 ZROTATION XROTATION YROTATION 
          End Site
          {
            OFFSET -0.220324 0.00085362 0.0102216
          }
        }
      }
      JOINT LeftArm
      {
        OFFSET 0.162727 -0.0536563199 0.00102123
        CHANNELS 3 ZROTATION XROTATION YROTATION 
        JOINT LeftForeArm
        {
          OFFSET 0.262597 0.00099144 -0.0142434
          CHANNELS 3 ZROTATION XROTATION YROTATION 
          End Site
          {
            OFFSET 0.220902 0.00085362 0.0102216
          }
        }
      }
    }
  }
  JOINT LeftUpLeg
  {
    OFFSET 0.089458 -0.0866707 0.00101652
    CHANNELS 3 ZROTATION XROTATION YROTATION 
    JOINT LeftLeg
    {
      OFFSET 0.0 -0.444227 0.013727
      CHANNELS 3 ZROTATION XROTATION YROTATION 
      JOINT LeftFoot
      {
        OFFSET -0.00253549 -0.420924 -0.0146059
        CHANNELS 3 ZROTATION XROTATION YROTATION 
        End Site
        {
          OFFSET -0.0004 -0.0441509 0.084991
        }
      }
    }
  }
}
MOTION
Frames: 8
Frame Time: 0.033333
-0.801955 0.960594975774 -1.13955 1.42003997762 3.67849015818 146.824997569 4.79440006147 -4.93269004782 -7.36903986911 -1.2559500189 21.2878998881 -8.75604979896 -4.25622512422 -43.8900511159 -0.654387564413 7.81338977839 6.05943006982 1.52242995609 -0.187425993715 8.2559604234 2.38366003448 65.0841417708 -12.7636940303 10.4611826196 6.19421019271 48.1038987583 8.78321004619 -81.3267892398 -37.9177200452 -0.268981734097 130.969000278 85.0857975099 -137.73099684 4.41742996835 -21.4545991925 -7.17681017133 0.821079024799 33.4881989345 12.4798996703 -5.14739064108 -31.3234592695 0.270611614668 
-0.789569 0.961334975774 -1.16054 1.11619997289 3.62777984557 145.172993374 4.45941001853 -3.42013996037 -7.481569797 -1.63612998077 20.932900806 -6.81007981244 -3.46330953069 -45.0529147277 -0.643358783255 7.52464011614 5.62982013565 1.87008999994 -0.821736003619 8.3756500971 2.74836993804 65.0255045968 -11.7116408462 11.123869771 5.81978989458 47.7414001285 9.45380997173 -80.3226079978 -38.5847085083 1.65555941436 142.421998082 84.5539989811 -148.790002012 4.37631009511 -21.0002994052 -6.47324988729 0.739140980586 23.3477995644 11.7020999257 -5.25913552411 -30.7735846451 0.299912779362 
-0.776809 0.961774975774 -1.18218 1.14337996364 3.44974007924 143.849002185 4.10255995516 -1.46554995495 -7.90617960582 -1.3308900007 20.1113007658 -4.8822200725 -3.53863072242 -45.7793258365 -0.692375955999 7.49836010953 5.22170992944 2.02016996001 -1.21031997965 8.480670232 2.91212991325 64.5951958489 -9.87674382288 11.3153507093 4.73911010703 46.5038996244 11.0671996914 -79.1663799147 -38.7864176548 3.47267756202 146.490004111 84.5068979966 -152.864004946 4.69767006867 -19.707300199 -0.292670004077 1.02774998363 12.8851996806 7.58340023357 -6.70962480522 -30.0968324267 0.429598755072 
-0.764103 0.960594975774 -1.2049 1.29973003737 3.15189004369 141.96299571 3.68700996539 0.228764006119 -8.43796020535 -0.953934955335 19.835999746 -2.50522993119 -4.17663890623 -46.8120231183 -0.828260328381 8.09198977954 4.45210000857 2.16623995872 -2.15517996146 9.04622014056 3.2747800879 64.4995732005 -8.89261516254 12.1301598338 5.03920001774 46.1858006393 10.8944001743 -78.364474725 -39.8149826721 4.74469165224 150.481006586 83.8427987036 -156.250002925 5.22631988024 -18.5698995324 2.53525992509 -0.308608997558 4.88368984383 7.78298006866 -9.70643647102 -30.4025721845 0.590089924475 
-0.750963 0.957714975774 -1.22945 1.44262997453 2.73172007128 140.332001178 3.27839005632 1.73696000806 -9.03032970546 -0.631160012037 19.9378993383 -0.443485009902 -4.0323259737 -48.2339114091 -0.896739484834 8.45272963565 3.56775998513 2.29130990049 -2.45321996165 9.34484967145 3.40314004641 64.3133344324 -8.59117073994 12.5985187118 5.37919018604 46.0855983491 10.5358997665 -77.3999222406 -40.4623684922 5.78048429034 153.643998889 83.8780014986 -159.131004038 4.99362984937 -18.7921999918 1.98992993779 0.114690001902 1.65475996206 8.61872969947 -10.4446279486 -32.520463582 0.431142030979 
-0.737789 0.956284975774 -1.25311 1.28921005195 2.40560991459 139.316994086 2.78401989697 3.28332999063 -9.28139977538 -0.540371003155 19.5257998747 0.975912049485 -3.55973237842 -49.0630314876 -0.878707998869 7.91623962069 3.31025993243 2.11292008696 -2.36859989425 9.19621024096 3.22115990126 64.1768262717 -8.38235734286 12.6268947327 5.26284986636 45.6024990691 10.7715003117 -76.5905926353 -41.3342626304 6.17566921732 159.421997417 83.7959026247 -164.367996942 4.36411009659 -19.1014999857 1.50757002578 0.387731002801 1.95617002027 9.11049990461 -7.59093905486 -33.0316656753 0.278562114945 
-0.723381 0.954407975774 -1.27912 1.13003003874 2.65845007073 138.454996892 1.50576002565 5.11388984386 -10.1162999014 -0.244465997371 19.9901998043 2.973580058 -3.07512170563 -49.9570007971 -0.850390354735 7.32704957364 2.88438995371 1.91638993133 -2.74418004387 9.51731963196 3.15089006131 64.6233020773 -9.31908790545 12.2062344808 5.33705005329 46.2053998672 10.5095002316 -75.6485114733 -41.6244807833 5.8768202666 164.009999407 83.5636010609 -168.515000938 3.39631007068 -18.2396001219 0.924603988605 0.533715997665 2.6616600462 8.07833964649 -6.23952337521 -27.8034154128 0.517978708209 
-0.707544 0.953555975774 -1.30758 0.944194998857 3.26712003074 137.234004955 -0.294740004963 7.17484990704 -11.2119997018 -0.0968485005835 20.7090994125 5.74802979273 -1.52413238074 -50.0483511621 -0.599878279247 6.03815018857 2.38992993469 2.19713994796 -1.89032998488 9.99558996821 3.15841991798 64.3691097572 -9.96693390955 11.1168491903 5.44309983921 45.2495012324 10.4884999612 -75.7673840856 -41.9012024824 4.24800200334 174.39599872 83.9470000696 -178.377999006 2.61544997448 -16.4079995186 0.686435985938 0.360427988604 2.83730006825 7.02962002161 -6.64620180302 -22.8537463685 0.842938244824 
